HIERARCHY
ROOT Hips
{
 OFFSET 0.000000 0.000000 0.000000
 CHANNELS 6 Xposition Yposition Zposition Yrotation Xrotation Zrotation
 JOINT Chest
 {
  OFFSET 0.000000 9.585900 0.002600
  CHANNELS 3 Yrotation Xrotation Zrotation
  JOINT Chest2
  {
   OFFSET 0.000000 9.601200 -0.005300
   CHANNELS 3 Yrotation Xrotation Zrotation
   JOINT Chest3
   {
    OFFSET 0.000000 9.561800 0.000000
    CHANNELS 3 Yrotation Xrotation Zrotation
    JOINT Chest4
    {
     OFFSET 0.000000 9.552100 0.000000
     CHANNELS 3 Yrotation Xrotation Zrotation
     JOINT Neck
     {
      OFFSET 0.000000 14.453000 0.000000
      CHANNELS 3 Yrotation Xrotation Zrotation
      JOINT Head
      {
       OFFSET 0.000000 8.936500 -0.011300
       CHANNELS 3 Yrotation Xrotation Zrotation
       End Site
       {
        OFFSET 0.000000 17.073600 -0.006000
       }
      }
     }
     JOINT RightCollar
     {
      OFFSET -2.921100 9.558500 0.000000
      CHANNELS 3 Yrotation Xrotation Zrotation
      JOINT RightShoulder
      {
       OFFSET -13.519700 0.000000 0.000000
       CHANNELS 3 Yrotation Xrotation Zrotation
       JOINT RightElbow
       {
        OFFSET 0.000000 -29.696600 0.000000
        CHANNELS 3 Yrotation Xrotation Zrotation
        JOINT RightWrist
        {
         OFFSET 0.000000 -24.004700 0.000000
         CHANNELS 3 Yrotation Xrotation Zrotation
         End Site
         {
          OFFSET 0.000000 -17.728500 0.000000
         }
        }
       }
      }
     }
     JOINT LeftCollar
     {
      OFFSET 2.921100 9.558500 0.000000
      CHANNELS 3 Yrotation Xrotation Zrotation
      JOINT LeftShoulder
      {
       OFFSET 13.519700 0.000000 0.000000
       CHANNELS 3 Yrotation Xrotation Zrotation
       JOINT LeftElbow
       {
        OFFSET 0.000000 -29.696600 0.000000
        CHANNELS 3 Yrotation Xrotation Zrotation
        JOINT LeftWrist
        {
         OFFSET 0.000000 -24.004700 0.000000
         CHANNELS 3 Yrotation Xrotation Zrotation
         End Site
         {
          OFFSET 0.000000 -17.728500 0.000000
         }
        }
       }
      }
     }
    }
   }
  }
 }
 JOINT RightHip
 {
  OFFSET -7.771700 -0.012900 -0.001300
  CHANNELS 3 Yrotation Xrotation Zrotation
  JOINT RightKnee
  {
   OFFSET 0.000000 -40.869800 0.001200
   CHANNELS 3 Yrotation Xrotation Zrotation
   JOINT RightAnkle
   {
    OFFSET 0.000000 -39.717900 0.002100
    CHANNELS 3 Yrotation Xrotation Zrotation
    JOINT RightToe
    {
     OFFSET 0.000000 -4.965400 11.033500
     CHANNELS 3 Yrotation Xrotation Zrotation
     End Site
     {
      OFFSET 0.000000 -1.423100 5.872300
     }
    }
   }
  }
 }
 JOINT LeftHip
 {
  OFFSET 7.771700 -0.012900 -0.001300
  CHANNELS 3 Yrotation Xrotation Zrotation
  JOINT LeftKnee
  {
   OFFSET 0.000000 -40.869800 0.001200
   CHANNELS 3 Yrotation Xrotation Zrotation
   JOINT LeftAnkle
   {
    OFFSET 0.000000 -39.717900 0.002100
    CHANNELS 3 Yrotation Xrotation Zrotation
    JOINT LeftToe
    {
     OFFSET 0.000000 -4.965400 11.033500
     CHANNELS 3 Yrotation Xrotation Zrotation
     End Site
     {
      OFFSET 0.000000 -1.423100 5.872300
     }
    }
   }
  }
 }
}
MOTION
Frames: 14
Frame Time: 0.008333
-3.195361 52.518852 33.906666 172.082457 -38.247546 -2.700591 2.725934 21.533641 1.943092 0.294551 2.943716 0.377600 0.489463 4.786950 0.622536 2.215668 18.300879 2.676347 0.502838 16.417323 -0.478618 1.158326 -5.363573 -1.068663 -5.500476 -1.164049 -4.529723 -7.505793 -2.063493 2.673708 -104.368996 -52.090394 133.415818 18.486911 17.961245 68.843075 -3.662861 0.155948 -0.080574 13.287278 -6.567742 3.743095 88.436723 -42.624482 -128.248082 -18.049823 22.703886 -81.240738 -0.954032 -42.921516 0.982950 -121.316315 84.762814 -117.742491 0.750310 -9.922061 0.722789 0.413304 -1.029275 0.201129 -0.376503 -39.332829 5.805975 70.525446 83.670972 60.096814 -5.718611 -13.047729 9.994089 0.637475 1.233352 0.313383
-3.191449 52.516055 33.905407 172.080936 -38.246319 -2.690888 2.733809 21.528587 1.951777 0.294889 2.941602 0.378498 0.484132 4.789064 0.616326 2.211648 18.301474 2.673924 0.540242 16.378518 -0.472577 1.143666 -5.360475 -1.088208 -5.474981 -1.169426 -4.513983 -7.600255 -2.143162 2.526713 -104.094186 -51.491146 133.542460 18.341831 17.909355 69.131753 -3.665196 0.151869 -0.077849 13.328642 -6.661104 3.821913 88.280027 -42.279547 -128.350097 -17.554835 22.561125 -80.934932 -0.952308 -42.925986 0.972269 -121.469333 84.766778 -117.889454 0.733106 -9.925672 0.709599 0.426416 -1.033677 0.202198 -0.353298 -39.334265 5.796604 70.501738 83.676608 60.078124 -5.710107 -13.055348 9.994436 0.626210 1.238157 0.312290
-3.186609 52.513354 33.904681 172.075170 -38.248438 -2.677666 2.744770 21.523037 1.958569 0.295240 2.939151 0.379397 0.479135 4.794835 0.611204 2.225236 18.290984 2.689448 0.545049 16.362824 -0.483838 1.142724 -5.360562 -1.108125 -5.462436 -1.162174 -4.511881 -7.689388 -2.232222 2.386242 -103.797938 -50.888453 133.640353 18.201986 17.871191 69.430259 -3.686863 0.156530 -0.088188 13.370542 -6.747480 3.897959 88.112481 -41.920391 -128.449940 -17.067757 22.452791 -80.613121 -0.953328 -42.929102 0.966199 -121.654618 84.773894 -118.070968 0.706373 -9.926986 0.688051 0.445985 -1.040056 0.209821 -0.329006 -39.331621 5.788661 70.498044 83.679761 60.073457 -5.694573 -13.065660 9.996146 0.604133 1.242739 0.307827
-3.182678 52.509366 33.905997 172.076776 -38.240235 -2.657979 2.743846 21.507707 1.949434 0.298211 2.931656 0.383150 0.491470 4.774876 0.626610 2.233923 18.274867 2.702553 0.522338 16.387777 -0.507240 1.147787 -5.354818 -1.124963 -5.466188 -1.115989 -4.520215 -7.769662 -2.330069 2.248473 -103.489868 -50.281247 133.714159 18.062237 17.840122 69.737191 -3.719779 0.194234 -0.106928 13.406418 -6.826312 3.967479 87.915907 -41.539683 -128.540927 -16.600336 22.384163 -80.284030 -0.958127 -42.944241 0.951993 -121.844451 84.780942 -118.262763 0.673101 -9.929208 0.665330 0.470501 -1.044636 0.219698 -0.307145 -39.339028 5.769346 70.477946 83.672844 60.049945 -5.700049 -13.066903 10.003979 0.604766 1.247596 0.299163
-3.175460 52.506332 33.907372 172.073223 -38.242256 -2.647322 2.747011 21.506840 1.945364 0.306424 2.914293 0.392701 0.492923 4.769195 0.627552 2.241245 18.264598 2.708348 0.524226 16.396141 -0.513022 1.142944 -5.337824 -1.133922 -5.456864 -1.078378 -4.504468 -7.836341 -2.438624 2.112086 -103.162735 -49.674361 133.761376 17.916045 17.802658 70.041348 -3.736777 0.218489 -0.107635 13.450534 -6.902260 4.027973 87.677362 -41.137008 -128.617485 -16.161710 22.358043 -79.965952 -0.960486 -42.946021 0.946648 -122.012181 84.792576 -118.421381 0.644735 -9.933384 0.642233 0.491146 -1.045585 0.225490 -0.305740 -39.333226 5.777861 70.390198 83.679880 59.954468 -5.705911 -13.074632 10.000788 0.599367 1.260395 0.297394
-3.172515 52.502270 33.909791 172.104497 -38.235486 -2.627112 2.715915 21.485535 1.918496 0.301839 2.920363 0.386559 0.497180 4.758592 0.631228 2.254353 18.245231 2.715147 0.528521 16.408499 -0.514883 1.119607 -5.312477 -1.133419 -5.453605 -1.031626 -4.480334 -7.896576 -2.555930 1.979841 -102.813845 -49.069778 133.790572 17.758286 17.753877 70.335048 -3.753505 0.252679 -0.106718 13.503599 -6.980542 4.075180 87.392324 -40.716970 -128.676658 -15.753812 22.370098 -79.670915 -0.963616 -42.955894 0.901210 -122.146005 84.801583 -118.550096 0.592391 -9.926144 0.616738 0.539632 -1.056438 0.242086 -0.307445 -39.338008 5.740630 70.344867 83.681126 59.905059 -5.745857 -13.095469 9.986145 0.626725 1.292259 0.311488
-3.164706 52.499175 33.912657 172.088416 -38.237932 -2.601519 2.731421 21.467879 1.916665 0.297585 2.928387 0.381170 0.494715 4.763008 0.628653 2.277779 18.209295 2.722696 0.534729 16.423818 -0.511827 1.126903 -5.290745 -1.136636 -5.452317 -0.980759 -4.444897 -7.956166 -2.676800 1.850996 -102.450067 -48.464056 133.807635 17.587187 17.699412 70.623151 -3.769550 0.291967 -0.105806 13.525599 -7.018795 4.095234 87.135801 -40.306190 -128.765727 -15.378425 22.415219 -79.394890 -1.004299 -42.964151 0.927158 -122.228471 84.798073 -118.675628 0.597909 -9.916999 0.612717 0.541136 -1.067914 0.238523 -0.285660 -39.336285 5.727509 70.308610 83.681267 59.870548 -5.735792 -13.094073 9.981570 0.620737 1.293582 0.298945
-3.156098 52.497299 33.914770 172.078747 -38.250415 -2.580584 2.751253 21.447870 1.916047 0.292443 2.934828 0.378268 0.496763 4.756548 0.629195 2.291322 18.199937 2.725696 0.542322 16.439796 -0.504065 1.182994 -5.258017 -1.125568 -5.453870 -0.932743 -4.398860 -8.012007 -2.797406 1.726262 -102.068856 -47.859083 133.809449 17.400835 17.641982 70.901312 -3.776837 0.331086 -0.096043 13.597904 -7.112098 4.124240 86.748556 -39.846951 -128.775441 -15.036824 22.488367 -79.129267 -1.038970 -42.958206 0.934082 -122.397384 84.806698 -118.861793 0.592265 -9.916134 0.590616 0.552608 -1.075212 0.242370 -0.285611 -39.319260 5.731552 70.232709 83.687391 59.781286 -5.737475 -13.097717 9.978610 0.619864 1.301682 0.294520
-3.144451 52.495570 33.917990 172.074379 -38.260745 -2.580473 2.762775 21.446989 1.924921 0.300650 2.920029 0.381562 0.499623 4.750132 0.629380 2.287050 18.212109 2.724615 0.555775 16.442472 -0.498213 1.208089 -5.235477 -1.108287 -5.443200 -0.907560 -4.349448 -8.063494 -2.914739 1.610359 -101.672569 -47.260711 133.800074 17.194901 17.581902 71.153579 -3.785731 0.350065 -0.093090 13.681456 -7.195383 4.143423 86.370577 -39.388122 -128.797692 -14.723129 22.581721 -78.874363 -1.062144 -42.951940 0.937382 -122.493708 84.806000 -118.929799 0.568101 -9.910981 0.551237 0.596248 -1.083011 0.246619 -0.300815 -39.307095 5.756963 70.162882 83.696715 59.702638 -5.729539 -13.102529 9.972345 0.615184 1.309526 0.291025
-3.134671 52.494605 33.920425 172.059952 -38.276555 -2.563005 2.784175 21.444402 1.925988 0.316715 2.894608 0.387415 0.504094 4.740044 0.628022 2.265975 18.247608 2.722425 0.551902 16.454304 -0.493045 1.227245 -5.227265 -1.098822 -5.434523 -0.883186 -4.298184 -8.111054 -3.029513 1.508072 -101.269412 -46.674989 133.785248 16.968422 17.525648 71.368805 -3.794692 0.367503 -0.090106 13.708455 -7.223755 4.147227 86.104568 -38.955950 -128.888598 -14.425836 22.684603 -78.630260 -1.067418 -42.941404 0.928589 -122.573395 84.803645 -118.991055 0.554766 -9.907809 0.517421 0.626303 -1.087716 0.254204 -0.316749 -39.282169 5.768283 70.072207 83.696635 59.593220 -5.708784 -13.120691 9.964398 0.600536 1.328290 0.283580
-3.125007 52.493285 33.923805 172.044027 -38.285968 -2.546880 2.813954 21.424962 1.936692 0.308842 2.902045 0.382377 0.506617 4.735485 0.627569 2.276704 18.234805 2.721944 0.567397 16.469818 -0.477878 1.219852 -5.202170 -1.085161 -5.440822 -0.833634 -4.246304 -8.154045 -3.146835 1.423023 -100.852132 -46.107423 133.759011 16.729655 17.480092 71.539513 -3.809727 0.414011 -0.081385 13.727659 -7.255768 4.141446 85.865360 -38.543523 -128.992323 -14.134776 22.781743 -78.383867 -1.093097 -42.935786 0.931936 -122.621201 84.804365 -119.036775 0.562968 -9.906501 0.484867 0.636883 -1.088930 0.256335 -0.310428 -39.270029 5.764850 70.017590 83.693606 59.540452 -5.686948 -13.129235 9.957817 0.583245 1.337116 0.272954
-3.117457 52.491752 33.927377 172.016284 -38.291889 -2.514367 2.834651 21.422152 1.924899 0.310778 2.895359 0.382131 0.510258 4.726075 0.627821 2.294293 18.228586 2.724687 0.623707 16.481778 -0.448057 1.258318 -5.129066 -1.039099 -5.450674 -0.787011 -4.197499 -8.186405 -3.265696 1.355792 -100.423799 -45.559661 133.717665 16.486302 17.447832 71.662092 -3.828765 0.451139 -0.077819 13.773628 -7.304025 4.132818 85.619086 -38.154656 -129.086504 -13.843560 22.861638 -78.117528 -1.155280 -42.933686 0.935968 -122.780349 84.829201 -119.230241 0.617071 -9.905500 0.462055 0.598253 -1.088450 0.236867 -0.279341 -39.263347 5.747950 69.975572 83.691890 59.501441 -5.674084 -13.126133 9.957595 0.571451 1.334564 0.263112
-3.105114 52.491762 33.930166 171.958026 -38.310632 -2.494615 2.893857 21.420561 1.948102 0.306415 2.907554 0.380223 0.516698 4.706469 0.629610 2.305981 18.219162 2.725588 0.642334 16.517471 -0.430185 1.305949 -5.053239 -1.004984 -5.452947 -0.737430 -4.152098 -8.207408 -3.334128 1.305961 -100.044196 -45.024671 133.732446 16.240021 17.431114 71.745469 -3.843149 0.492175 -0.075605 13.884647 -7.369420 4.115751 85.338569 -37.786714 -129.174280 -13.545408 22.920049 -77.820442 -1.175906 -42.918263 0.975012 -122.859581 84.840953 -119.330511 0.683443 -9.922545 0.475533 0.528093 -1.068465 0.213153 -0.261659 -39.243016 5.775329 69.940270 83.687152 59.466636 -5.624142 -13.107699 9.954506 0.528805 1.310911 0.241779
-3.096479 52.490619 33.933668 171.936577 -38.317775 -2.480369 2.912246 21.411414 1.951119 0.308161 2.904172 0.379670 0.516734 4.713010 0.628904 2.330368 18.181093 2.726519 0.651648 16.576794 -0.409117 1.333060 -4.973406 -0.980329 -5.463979 -0.675527 -4.107541 -8.222331 -3.397992 1.261502 -99.678853 -44.504150 133.743885 15.990631 17.426224 71.797325 -3.871119 0.544649 -0.071626 13.908427 -7.383359 4.111685 85.216601 -37.450226 -129.318431 -13.233086 22.948677 -77.484127 -1.208553 -42.913672 0.982005 -122.950778 84.855214 -119.419857 0.691906 -9.921682 0.445646 0.529973 -1.066630 0.212911 -0.264648 -39.234771 5.781259 69.958367 83.675552 59.485229 -5.618151 -13.110733 9.941119 0.524644 1.313977 0.237199
